<svg width="24" height="24" viewBox="0 0 24 24" fill="none" xmlns="http://www.w3.org/2000/svg">
<g clip-path="url(#clip0_34717_1989)">
<path d="M6.75018 9.75C5.92049 9.75 5.25018 10.4203 5.25018 11.25C5.25018 12.0797 5.92049 12.75 6.75018 12.75C7.57987 12.75 8.25018 12.0797 8.25018 11.25C8.25018 10.4203 7.57987 9.75 6.75018 9.75ZM12.0002 9.75C11.1705 9.75 10.5002 10.4203 10.5002 11.25C10.5002 12.0797 11.1705 12.75 12.0002 12.75C12.8299 12.75 13.5002 12.0797 13.5002 11.25C13.5002 10.4203 12.8299 9.75 12.0002 9.75ZM17.2502 9.75C16.4205 9.75 15.7502 10.4203 15.7502 11.25C15.7502 12.0797 16.4205 12.75 17.2502 12.75C18.0799 12.75 18.7502 12.0797 18.7502 11.25C18.7502 10.4203 18.0799 9.75 17.2502 9.75ZM12.0002 1.5C5.37206 1.5 0.000181322 5.86406 0.000181322 11.25C0.000181322 13.4812 0.932994 15.525 2.47987 17.1703C1.78143 19.0172 0.328306 20.5828 0.304869 20.6016C-0.00450618 20.9297 -0.0888812 21.4078 0.0892438 21.8203C0.267369 22.2328 0.675181 22.5 1.12518 22.5C4.00799 22.5 6.28143 21.2953 7.64549 20.3297C9.00018 20.7563 10.4627 21 12.0002 21C18.6283 21 24.0002 16.6359 24.0002 11.25C24.0002 5.86406 18.6283 1.5 12.0002 1.5ZM12.0002 18.75C10.7486 18.75 9.51112 18.5578 8.32518 18.1828L7.26112 17.8453L6.34706 18.4922C5.67674 18.9656 4.75799 19.4953 3.65174 19.8516C3.99393 19.2844 4.32674 18.6469 4.58456 17.9672L5.08143 16.65L4.11581 15.6281C3.26737 14.7234 2.25018 13.2281 2.25018 11.25C2.25018 7.11563 6.62362 3.75 12.0002 3.75C17.3767 3.75 21.7502 7.11563 21.7502 11.25C21.7502 15.3844 17.3767 18.75 12.0002 18.75Z" fill="black" style="fill:black;fill-opacity:1;"/>
</g>
<defs>
<clipPath id="clip0_34717_1989">
<rect width="24" height="24" fill="white" style="fill:white;fill-opacity:1;"/>
</clipPath>
</defs>
</svg>
